<svg aria-hidden="true" style="width:0;height:0;position:absolute;overflow:hidden" xmlns="http://www.w3.org/2000/svg"><defs><symbol id="icon-search" viewBox="0 0 32 32"><path d="m31.008 27.231-7.58-6.447c-.784-.705-1.622-1.029-2.299-.998a11.954 11.954 0 0 0 2.87-7.787c0-6.627-5.373-12-12-12s-12 5.373-12 12 5.373 12 12 12c2.972 0 5.691-1.081 7.787-2.87-.031.677.293 1.515.998 2.299l6.447 7.58c1.104 1.226 2.907 1.33 4.007.23s.997-2.903-.23-4.007zM12 20a8 8 0 1 1 0-16 8 8 0 0 1 0 16z"/></symbol></defs><defs><symbol id="pixabay" viewBox="0 0 165 32"><path d="M135.242 10.377c-.899-.636-1.551-1.28-1.551-2.075h-4.996c0 1.431-.653 2.075-1.458 2.075h-1.334v14.528h25.942V10.377h-16.696zm-1.552 4.151h-4.675v-2.075h5.188v1.67zm8.781 8.08c-2.96 0-5.368-2.377-5.368-5.299s2.408-5.177 5.368-5.177c2.959 0 5.367 2.255 5.367 5.177s-2.408 5.299-5.368 5.299zm2.886-5.299c0 1.571-1.294 2.849-2.885 2.849s-2.886-1.278-2.886-2.849c0-1.571 1.295-2.849 2.886-2.849s2.886 1.278 2.886 2.849zm19.978-8.908-6.458 16.465-4.956-1.987v-2.806l3.442 1.408 4.545-11.585-17.029-6.511-1.578 4.917h-2.842L143.365 0l21.972 8.401zM8.771 7.366c4.279-.098 8.294 3.382 8.746 7.648.54 3.749-1.665 7.643-5.122 9.165-2.094 1.04-4.459.72-6.712.773h-2.2v7.05H-.003c.008-5.44-.014-10.88.011-16.32C.122 11.63 3.441 8 7.447 7.461a8.685 8.685 0 0 1 1.306-.096h.019-.001zm0 14.1c2.514.063 4.872-1.899 5.248-4.39.501-2.507-1.098-5.202-3.544-5.954-2.361-.838-5.203.265-6.356 2.496-.895 1.523-.577 3.325-.636 5.004v2.844h5.288zM19.203 7.28h3.446v17.587h-3.446V7.28zm13.803 11.105h.126l4.899 6.532h4.271l-6.657-9.044 5.904-8.541h-4.271l-4.145 6.029h-.126l-4.145-6.029h-4.271l5.903 8.541-6.657 9.044h4.271z"/><path d="M50.105 7.28c3.49-.069 6.838 2.218 8.13 5.446.674 1.499.665 3.16.643 4.77v7.371c-3.11-.011-6.222.021-9.332-.017-3.576-.174-6.846-2.782-7.869-6.203-.939-2.975-.159-6.429 2.05-8.65 1.65-1.707 3.995-2.739 6.378-2.717zm5.288 14.102c-.015-1.956.031-3.913-.026-5.867-.206-2.62-2.633-4.815-5.262-4.748-2.5-.06-4.857 1.879-5.248 4.354-.458 2.375.905 4.963 3.172 5.85 1.396.609 2.938.358 4.414.411h2.95zM69.369 7.366c4.128-.102 7.985 3.146 8.643 7.212.746 3.853-1.431 8.016-5.019 9.602-3.506 1.655-8.015.588-10.426-2.444-1.494-1.761-2.138-4.101-2.011-6.383V.316h3.486v7.05l5.328.001zm0 14.1c2.647.071 5.067-2.152 5.262-4.786.332-2.618-1.608-5.25-4.2-5.726-1.433-.196-2.888-.064-4.331-.103h-2.058c.022 1.987-.048 3.978.04 5.962.277 2.625 2.651 4.704 5.288 4.653zM88.26 7.28c3.491-.069 6.839 2.218 8.131 5.446.674 1.499.665 3.16.643 4.77v7.371c-3.11-.011-6.222.021-9.332-.017-3.576-.174-6.846-2.782-7.869-6.203-.938-2.975-.159-6.429 2.05-8.65 1.65-1.707 3.995-2.739 6.378-2.717zm5.288 14.102c-.015-1.956.032-3.913-.026-5.867-.206-2.62-2.633-4.815-5.263-4.748-2.5-.06-4.857 1.879-5.248 4.354-.458 2.375.905 4.963 3.172 5.85 1.396.609 2.938.358 4.414.411h2.95zm22.669-14.059c-.007 5.427.014 10.854-.011 16.281-.127 4.271-3.797 8.11-8.082 8.333-.814.043-1.63.017-2.445.024v-3.486c1.487-.008 3.079.144 4.396-.699 1.646-.923 2.691-2.785 2.654-4.667-3.09 2.491-7.88 2.362-10.884-.209-2.189-1.767-3.385-4.61-3.216-7.408V7.323h3.485c.016 3.105-.033 6.212.026 9.315.189 2.556 2.468 4.719 5.029 4.78 2.596.199 5.094-1.816 5.481-4.384.156-1.536.045-3.088.079-4.63V7.323h3.487z"/></symbol></defs></svg>